<svg xmlns="http://www.w3.org/2000/svg" viewBox="0 0 85 73">
  <path d="M85 21.25H61.21l-.866 3.91c1.44.12 4.598.63 6.366 2.792 1.152 1.408 1.52 3.245 1.094 5.46L64.29 50.063c-.85 3.803-1.733 5.817-3.256 7.437-1.347 1.435-3.315 2.224-5.546 2.224-4.673 0-7.37-2.396-7.598-6.746-.058-1.116.066-2.464.368-4.004l5.924-27.724h-24.52l-.865 3.91c1.428.12 4.552.624 6.327 2.747 1.142 1.368 1.536 3.147 1.17 5.288l-.728 3.67H17.78L25.52 0H1.275L.402 3.944l1.284.13c1.75.314 4.11 1.097 5.416 3.058.93 1.397 1.175 3.164.728 5.25L0 49.652h41.912l-.082.686c-.234 1.518-.054 3.85-.054 3.85l-.684-.026a22.13 22.13 0 0 0-.806-.013c-1.984 0-4.955.866-6.2 2.527-1.335 1.78-.842 4.252-.047 6.152 1.86 4.447 5.798 7.482 10.318 8.758 2.983.842 6.42 1.412 9.52 1.412 8.097 0 13.736-1.987 17.746-6.254 3.166-3.367 5.365-8.085 6.724-14.418L85 21.25z" fill="#ffffff"/>
</svg>